<svg class="home__about__title__mask" xmlns="http://www.w3.org/2000/svg" overflow="visible" viewBox="0 0 773.51 163.7">
                <defs>
                  <mask id="mask" x="0" y="0" width="100%" height="100%">
                    <rect fill="#fff" x="0" y="0%" width="100%" height="1005%"></rect>

                    <path d="M48.73,72.6H20.57L0,0h27.61l8.47,52.47L46.31,0h22l10.78,52.14L87.34,0h26.62L93.28,72.6H66.11l-5.72-27.28l-2.86-18.59 H57.2l-2.86,18.59L48.73,72.6z"></path>
                    <path d="M180.29,53.79V72.6h-61.6V0h60.28v18.81h-34.65v9.02h27.94v17.38h-27.94v8.58H180.29z"></path>
                    <path d="M255.86,58.74h-19.58l-3.41,13.86h-25.52L230.89,0h30.8l23.65,72.6h-26.18L255.86,58.74z M252.12,42.79l-5.83-24.2h-0.33 l-2.86,12.32l-2.97,11.88H252.12z"></path>
                    <path d="M321.86,48.51h-7.04V72.6h-25.08V0h39.38c19.36,0,29.37,8.14,29.37,24.31c0,10.67-4.4,17.82-13.09,21.45l17.16,26.84 h-27.83L321.86,48.51z M314.82,31.68h9.13c6.49,0,8.91-1.76,8.91-6.71c0-4.84-2.42-6.71-8.91-6.71h-9.13V31.68z"></path>
                    <path d="M428.89,53.79V72.6h-61.6V0h60.28v18.81h-34.65v9.02h27.94v17.38h-27.94v8.58H428.89z"></path>
                    <path d="M75.35,115.41c0,15.62-10.23,24.09-30.47,24.09H32.01v23.1H6.38V90h38.5C65.12,90,75.35,98.47,75.35,115.41z M49.72,115.08 c0-4.73-2.75-6.82-9.02-6.82h-8.69v13.64h8.69C46.97,121.9,49.72,119.81,49.72,115.08z"></path>
                    <path d="M152.57,131.36c0,21.67-11.66,32.34-35.09,32.34c-23.43,0-35.09-10.67-35.09-32.34V90h25.74v43.34 c0,7.37,3.3,11.11,9.35,11.11c6.16,0,9.46-3.74,9.46-11.11V90h25.63V131.36z"></path>
                    <path d="M194.04,138.51H187v24.09h-25.08V90h39.38c19.36,0,29.37,8.14,29.37,24.31c0,10.67-4.4,17.82-13.09,21.45l17.16,26.84 h-27.83L194.04,138.51z M187,121.68h9.13c6.49,0,8.91-1.76,8.91-6.71c0-4.84-2.42-6.71-8.91-6.71H187V121.68z"></path>
                    <path d="M301.07,143.79v18.81h-61.6V90h60.28v18.81H265.1v9.02h27.94v17.38H265.1v8.58H301.07z"></path>
                    <path d="M370.48,163.7c-22.99,0-36.96-13.64-36.96-37.4s13.97-37.4,36.96-37.4c15.95,0,29.92,6.49,33,22l-22,8.58 c-1.21-9.46-4.29-11.33-10.34-11.33c-7.59,0-11.44,5.61-11.44,18.15c0,12.43,3.52,18.15,11.22,18.15c7.04,0,9.57-2.97,10.45-9.9 l22.66,5.83C399.96,157.43,387.09,163.7,370.48,163.7z"></path>
                    <path d="M435.93,162.6H410.3V90h25.63V162.6z"></path>
                    <path d="M517.98,162.6h-27.72l-17.38-33l-3.96-8.91h-0.22l0.44,14.96v26.95h-22.22V90h27.72l17.38,33.11l3.96,8.8h0.22l-0.44-14.96 V90h22.22V162.6z"></path>
                    <path d="M590.58,143.79v18.81h-61.6V90h60.28v18.81h-34.65v9.02h27.94v17.38h-27.94v8.58H590.58z"></path>
                    <path d="M691.12,162.6h-22.33v-25.19l0.33-24.42h-0.33l-14.08,49.61h-20.46l-13.86-49.61h-0.44l0.33,24.42v25.19h-22.44V90h35.86 l8.36,32.23l3.19,13.53h0.22l3.19-13.53L657.02,90h34.1V162.6z"></path>
                    <path d="M744.03,148.74h-19.58l-3.41,13.86h-25.52L719.06,90h30.8l23.65,72.6h-26.18L744.03,148.74z M740.29,132.79l-5.83-24.2 h-0.33l-2.86,12.32l-2.97,11.88H740.29z"></path>
                  </mask>
                </defs>

                <rect class="home__about__title__mask__element" fill="#fff" x="-5%" y="-5%" width="110%" height="110%"></rect>
              </svg>