<svg xmlns="http://www.w3.org/2000/svg"><symbol id="sprite-arrow-left" viewBox="0 0 17.299 12.353"><title>arrow-left</title><g fill="none" stroke="currentColor" stroke-width="1.5"><path d="M17.299 6.177H.736"/><path d="M6.707 11.823L1.061 6.177 6.707.531" stroke-miterlimit="10"/></g></symbol><symbol id="sprite-arrow-newsletter" viewBox="0 0 10.138 7.266"><title>arrow-newsletter</title><g fill="none" stroke="currentColor"><path d="M0 3.633h9.619"/><path d="M6.152.354l3.279 3.279-3.279 3.279" stroke-miterlimit="10"/></g></symbol><symbol id="sprite-arrow-right" viewBox="0 0 17.299 12.353"><title>arrow-right</title><g fill="none" stroke="currentColor" stroke-width="1.5"><path d="M0 6.176h16.563"/><path d="M10.592.53l5.646 5.646-5.646 5.646" stroke-miterlimit="10"/></g></symbol><symbol id="sprite-companies-arrow" viewBox="0 0 28.4 28.4"><title>companies-arrow</title><path fill="currentColor" d="M5.1 23.7l15.9.1-21-21L2.8 0l21 21-.1-15.9h4.5l.1 23.1h-.2v.2l-23-.2v-4.5z"/></symbol><symbol id="sprite-facebook" viewBox="0 0 56.693 56.693"><title>facebook</title><path d="M40.43 21.739h-7.645v-5.014c0-1.883 1.248-2.322 2.127-2.322h5.395V6.125l-7.43-.029c-8.248 0-10.125 6.174-10.125 10.125v5.518h-4.77v8.53h4.77v24.137h10.033V30.269h6.77l.875-8.53z" fill="currentColor"/></symbol><symbol id="sprite-gallery-arrow-left" viewBox="0 0 79.6 48.7"><title>gallery-arrow-left</title><path fill="none" stroke="currentColor" stroke-width=".5" stroke-miterlimit="10" d="M29.4 5.7L14.7 20.6h64.7v7.6H14.7L29.4 43l-5.3 5.3L5.7 29.7h0L.4 24.4h0L5.6 19h0L24.1.4l5.3 5.3z"/></symbol><symbol id="sprite-gallery-arrow-right" viewBox="0 0 79.6 48.7"><title>gallery-arrow-right</title><path fill="none" stroke="currentColor" stroke-width=".5" stroke-miterlimit="10" d="M50.2 43L65 28.1H.3v-7.6h64.6L50.2 5.7 55.5.4 73.9 19h0l5.3 5.3h0L74 29.7h0L55.5 48.4 50.2 43z"/></symbol><symbol id="sprite-home-arrow-left" viewBox="0 0 16.653 11.904"><title>home-arrow-left</title><g data-name="Grupo 197"><g data-name="Grupo 196" fill="none" stroke="#fff" stroke-width="1.5"><path data-name="Linha 2" d="M16.654 5.952H.75"/><path data-name="Caminho 46" d="M6.483 11.374L1.061 5.952 6.483.531" stroke-miterlimit="10"/></g></g></symbol><symbol id="sprite-instagram" viewBox="0 0 512 512"><title>instagram</title><path d="M256 109.3c47.8 0 53.4.2 72.3 1 17.4.8 26.9 3.7 33.2 6.2 8.4 3.2 14.3 7.1 20.6 13.4 6.3 6.3 10.1 12.2 13.4 20.6 2.5 6.3 5.4 15.8 6.2 33.2.9 18.9 1 24.5 1 72.3s-.2 53.4-1 72.3c-.8 17.4-3.7 26.9-6.2 33.2-3.2 8.4-7.1 14.3-13.4 20.6-6.3 6.3-12.2 10.1-20.6 13.4-6.3 2.5-15.8 5.4-33.2 6.2-18.9.9-24.5 1-72.3 1s-53.4-.2-72.3-1c-17.4-.8-26.9-3.7-33.2-6.2-8.4-3.2-14.3-7.1-20.6-13.4-6.3-6.3-10.1-12.2-13.4-20.6-2.5-6.3-5.4-15.8-6.2-33.2-.9-18.9-1-24.5-1-72.3s.2-53.4 1-72.3c.8-17.4 3.7-26.9 6.2-33.2 3.2-8.4 7.1-14.3 13.4-20.6 6.3-6.3 12.2-10.1 20.6-13.4 6.3-2.5 15.8-5.4 33.2-6.2 18.9-.8 24.5-1 72.3-1m0-32.2c-48.6 0-54.7.2-73.8 1.1-19 .9-32.1 3.9-43.4 8.3-11.8 4.6-21.7 10.7-31.7 20.6C97.2 117 91 127 86.5 138.8c-4.4 11.4-7.4 24.4-8.3 43.4-.9 19.1-1.1 25.2-1.1 73.8 0 48.6.2 54.7 1.1 73.8.9 19 3.9 32.1 8.3 43.4 4.6 11.8 10.7 21.7 20.6 31.7 9.9 9.9 19.9 16.1 31.7 20.6 11.4 4.4 24.4 7.4 43.4 8.3 19.1.9 25.2 1.1 73.8 1.1s54.7-.2 73.8-1.1c19-.9 32.1-3.9 43.4-8.3 11.8-4.6 21.7-10.7 31.7-20.6 9.9-9.9 16.1-19.9 20.6-31.7 4.4-11.4 7.4-24.4 8.3-43.4.9-19.1 1.1-25.2 1.1-73.8s-.2-54.7-1.1-73.8c-.9-19-3.9-32.1-8.3-43.4-4.6-11.8-10.7-21.7-20.6-31.7C395 97.2 385 91 373.2 86.5c-11.4-4.4-24.4-7.4-43.4-8.3-19.1-.9-25.2-1.1-73.8-1.1z"/><path d="M256 164.1c-50.7 0-91.9 41.1-91.9 91.9s41.1 91.9 91.9 91.9 91.9-41.1 91.9-91.9-41.2-91.9-91.9-91.9zm0 151.5c-32.9 0-59.6-26.7-59.6-59.6s26.7-59.6 59.6-59.6 59.6 26.7 59.6 59.6-26.7 59.6-59.6 59.6z"/><circle cx="351.5" cy="160.5" r="21.5"/></symbol><symbol overflow="visible" id="sprite-logo" viewBox="0 0 34.5 44.51"><title>logo</title><path fill="currentColor" d="M33.95 11.13l-.12-.44-19.67 19.66h5.16c3.13 0 6.19-.97 8.75-2.78 1.41-1 2.65-2.23 3.65-3.65a15.052 15.052 0 002.78-8.75c0-1.36-.19-2.72-.55-4.04M0 0v11.13L11.13 0H0zm0 44.51h11.13V33.38L0 44.51zM22.01.24L0 22.26v11.13L29.48 3.9C27.38 2.01 24.8.74 22.01.24"/></symbol><symbol id="sprite-mc-group-sa" viewBox="0 0 116 36"><title>mc-group-sa</title><defs><clipPath id="a"><path data-name="Clip 4" d="M0 0h25.18v22.032H0z" fill="none"/></clipPath><clipPath id="b"><path data-name="Clip 13" d="M0 35.432h115.427V0H0z" fill="none"/></clipPath></defs><g data-name="M&amp;C Group SA"><path data-name="Fill 1" d="M48.058 22.008a16.624 16.624 0 01-1.9-.131 3.648 3.648 0 01-3.151-2.69 10.931 10.931 0 01-.452-4.027h4.182v.414c0 .295-.01.6.009.894.057.912.455 1.457 1.067 1.457a1.038 1.038 0 00.887-.495 1.756 1.756 0 00.278-1.322 3.821 3.821 0 00-1.529-2.3q-.274-.223-.551-.443a21.616 21.616 0 01-2.349-2.074 7.922 7.922 0 01-1.742-7.644A4.906 4.906 0 0147.219.208h.353a9.534 9.534 0 012.435.286c1.6.424 2.518 1.625 2.822 3.671.074.5.106 1 .139 1.527.016.246.032.5.053.761h-4.086a26.233 26.233 0 01-.015-.376 14.512 14.512 0 00-.038-.712c-.071-.8-.42-1.228-1.01-1.228a1.353 1.353 0 00-.149.009c-.608.068-.924.6-.847 1.427a4.114 4.114 0 001.531 2.835c.488.409 1 .807 1.494 1.192.518.4 1.052.818 1.561 1.248a5.547 5.547 0 012.039 3.764c.009.083.063.144.181.2q.958-5.106 1.921-10.227l.8-4.243h5.251l3.414 18.619h.098q.9-4.761 1.792-9.524L68.671.333h5.244l2.978 16.212.951 5.181H73.22a158.18 158.18 0 00-.132-.86c-.109-.7-.221-1.421-.3-2.137-.046-.4-.184-.534-.545-.534h-.056c-.291.01-.606.015-.992.015h-1.424l-.045.349-.41 3.156h-8.365l-.174-1.158v-.023l-.348-2.319h-1.271c-.381 0-.883 0-1.388.021-.114 0-.288.242-.312.388-.128.792-.234 1.569-.347 2.392v.01q-.048.354-.1.712h-4.615l.227-1.34.071-.419a5.486 5.486 0 01-4.636 2.029zm23.28-16.649h-.044l-.087.009-.646 5.506-.312 2.658h2l-.386-3.455-.009-.085-.516-4.633zm-12.266.039l-.129.012h-.01l-.95 8.113h1.968L59.16 6.21l-.088-.813z" fill="currentColor" transform="translate(0 .324)"/><g data-name="Group 5"><path data-name="Clip 4" d="M0 0h25.18v22.032H0z" fill="none" transform="translate(16.131 .324)"/><g data-name="Group 5" clip-path="url(#a)" transform="translate(16.131 .324)"><path data-name="Fill 3" d="M4.572 22.031a4.114 4.114 0 01-2.767-1A5.191 5.191 0 01.257 18.2a7.717 7.717 0 011.623-7.219 9.347 9.347 0 01.739-.72c.124-.112.252-.229.381-.35a8.965 8.965 0 01-1.47-3.677c-.278-2.37.25-4.027 1.662-5.212A4.2 4.2 0 015.955 0a6.457 6.457 0 012.461.554c1.506.63 2.283 1.892 2.447 3.971a6.972 6.972 0 01-2.316 5.715.658.658 0 00-.122.969c.3.492.577 1.013.843 1.517.11.209.224.424.337.634h.165l.486-2.12h3.834v-.36c0-.241-.006-.449.006-.66.033-.608.052-1.229.07-1.83a32.524 32.524 0 01.312-4.224 4.717 4.717 0 011.44-2.969 5.139 5.139 0 013.156-1.05c.185-.011.376-.017.566-.017a10.3 10.3 0 011.649.135 3.917 3.917 0 013.48 3.351 24.732 24.732 0 01.314 3.091c.028.464.057.943.1 1.419h-4.45v-.7c0-.589 0-1.144-.006-1.711a4.912 4.912 0 00-.112-.892c-.071-.347-.231-.81-.8-.829h-.041a.814.814 0 00-.831.816l-.022.168a16.875 16.875 0 00-.2 2.225c0 3.17.045 6.3.084 8.67a6.611 6.611 0 00.192 1.277l.031.143a.74.74 0 00.761.639h.026a.7.7 0 00.728-.639c.146-1.023.234-2.038.308-2.982.027-.34.02-.678.013-1.036 0-.161-.006-.328-.006-.5h4.3v.118c.035 2.361.072 4.8-1.245 6.94a4.49 4.49 0 01-4.152 2.156 8.63 8.63 0 01-.874-.046c-2.8-.282-4.149-1.629-4.516-4.5-.165-1.29-.226-2.567-.286-3.8a78.049 78.049 0 00-.081-1.5 12.11 12.11 0 00-.1.531 10.228 10.228 0 01-.414 1.708 18.95 18.95 0 01-.821 1.83 32.7 32.7 0 00-.524 1.1.806.806 0 00-.011.616c.413.772.85 1.546 1.273 2.3.182.323.363.642.542.963.064.114.123.233.191.37l.109.219h-1.878c-.784 0-1.71 0-2.638-.015-.135 0-.3-.175-.382-.3a7.408 7.408 0 01-.354-.652c-.038-.076-.073-.144-.1-.206-.284.128-.565.268-.836.4a11.123 11.123 0 01-1.786.762 6.034 6.034 0 01-1.703.262zm.575-8.438a2.8 2.8 0 00-1.08 1.687 2.039 2.039 0 00.765 2.173 1.215 1.215 0 00.615.156 2.412 2.412 0 001.541-.683l-.609-1.1-1.231-2.233zM6.168 3.567h-.071a1.066 1.066 0 00-.829.362 1.013 1.013 0 00-.153.845A11.6 11.6 0 005.652 6.5c.09.245.183.5.266.748a3.418 3.418 0 001.317-2.516 1.188 1.188 0 00-.288-.878 1.058 1.058 0 00-.779-.287z" fill="currentColor"/></g></g><path data-name="Fill 6" d="M4.385 21.736c-.206.011-.321.022-.437.022H0V.336h6.577l1.4 12.839.111.008C8.608 8.912 9.131 4.636 9.657.336h6.255v21.39h-4.194V8.444h-.109l-1.521 13.279H5.967Q5.2 15.028 4.445 8.379h-.06z" fill="currentColor" transform="translate(0 .324)"/><path data-name="Fill 8" d="M97.122 8.123H92.73c0-.854.021-1.673-.01-2.491a2.679 2.679 0 00-.227-1.1.976.976 0 00-.706-.5.988.988 0 00-.749.518 6.776 6.776 0 00-.317 1.946c0 3.231.044 6.462.082 9.693a3.74 3.74 0 00.122.831c.112.462.259.9.868.9.593 0 .747-.451.8-.884.118-.933.174-1.874.232-2.813.028-.459 0-.921 0-1.433h4.318c.056 2.285.06 4.548-1.03 6.636-1.063 2.038-3.119 2.929-5.686 2.52-2.455-.391-3.7-1.66-4.067-4.277a27.85 27.85 0 01-.265-3.536c-.037-2.929-.012-5.859-.012-8.836h-2.717v16.421h-4.465V5.271h-2.99V.337h10.518v3.374l.094.021a2.29 2.29 0 00.1-.21 4.451 4.451 0 014.6-3.423 9.847 9.847 0 012.214.143 4.128 4.128 0 013.485 3.983c.151 1.269.14 2.557.2 3.9" fill="currentColor" transform="translate(0 .324)"/><path data-name="Fill 10" d="M97.95.309h4.37v7.606h2.166V.324h4.432v21.393h-4.405v-8.715h-2.163v8.714h-4.4z" fill="currentColor" transform="translate(0 .324)"/><path data-name="Clip 13" d="M0 35.432h115.427V0H0z" fill="none" transform="translate(0 .324)"/><g data-name="Grupo de máscara 6" clip-path="url(#b)" fill="currentColor" transform="translate(0 .324)"><path data-name="Fill 12" d="M110.577 21.742h4.85V.359h-4.85z"/><path data-name="Fill 14" d="M42.607 25.878c0-.509-.158-.878-.6-.878-.386 0-.631.316-.6.807.175 2.563 3.963 2.422 3.911 5.95-.052 2.843-1.14 3.668-3.507 3.668-1.957.001-2.904-.965-2.904-3.65v-.333l2.42.017v.56c0 .6.193 1.088.649 1.088a.839.839 0 00.684-1.07 2.4 2.4 0 00-1.153-1.596 5.3 5.3 0 01-2.6-4.194c0-1.773.4-2.159 1-2.756a2.723 2.723 0 012.069-.772c2.594 0 3.016 1.614 3.016 3.651h-2.385z"/><path data-name="Fill 15" d="M49.199 35.425c-1.527 0-2.351-.378-2.845-1.3-.476-.895-.662-2.301-.662-5.018 0-2.732.186-4.15.662-5.057.497-.945 1.321-1.331 2.845-1.331 1.508 0 2.364.4 2.863 1.332.483.9.68 2.368.68 5.057 0 2.673-.2 4.126-.68 5.015-.503.925-1.332 1.302-2.863 1.302zm0-10.407a.46.46 0 00-.347.121c-.288.288-.287 1.165-.284 3.284v1.336c0 2.1 0 2.964.278 3.247a.462.462 0 00.353.121.48.48 0 00.367-.125c.286-.287.285-1.157.283-3.258V28.439c0-2.123 0-3-.289-3.295a.477.477 0 00-.361-.125z"/><path data-name="Fill 16" d="M56.248 22.825v9.3c0 .843.21 1.035.631 1.035s.6-.192.6-1.035v-9.3h2.802v8.7c0 2.808-1.07 3.9-3.4 3.9s-3.439-1.087-3.439-3.9v-8.7z"/><path data-name="Fill 17" d="M60.718 22.825h6.12v2.878h-1.771v9.622h-2.578v-9.622h-1.771z"/><path data-name="Fill 18" d="M71.169 22.825h2.6v12.5h-2.6v-5.164h-1.245v5.164h-2.578v-12.5h2.578v4.44h1.245z"/><path data-name="Fill 19" d="M78.71 35.325h-2.7l2.367-12.5h3.033l2.3 12.495h-2.686l-.3-2.088h-1.733l-.281 2.093zm1.158-9.85l-.6 5.072h1.179l-.562-5.072h-.017z"/><path data-name="Fill 20" d="M84.058 22.825h5.664v2.633h-2.841v2.123h2.63v2.58h-2.63v5.164h-2.823z"/><path data-name="Fill 21" d="M93.141 35.325h-2.806v-12.5h3.455a3.346 3.346 0 012.56.794 3.986 3.986 0 01.772 2.821c0 1.551-.287 2.438-1.807 2.685 1.54.337 1.841 1.3 1.841 2.861v3.334h-3v-3.387c0-1.266-.209-1.632-.93-1.632h-.085v5.024zm0-10.338v3.121h.386c.577 0 .771-.39.771-1.545 0-1.21-.18-1.579-.771-1.579z"/><path data-name="Fill 22" d="M97.875 35.325h2.893v-12.5h-2.893z"/><path data-name="Fill 23" d="M105.309 26.352c0-.544 0-1.422-.544-1.422-.666 0-.684.509-.684 4.019 0 3.616.053 4.124.684 4.124.421 0 .6-.544.6-2.088v-.947h2.505v.772c0 2.9-.929 4.616-3.192 4.616-3.332 0-3.279-2.545-3.279-6.476 0-3.809-.035-6.231 3.3-6.231 2.749 0 3.118 1.808 3.118 3.721v.913h-2.508z"/><path data-name="Fill 24" d="M110.429 35.325h-2.7l2.367-12.5h3.033l2.3 12.495h-2.686l-.3-2.088h-1.733l-.281 2.093zm1.158-9.85l-.6 5.072h1.179l-.562-5.072h-.017z"/><path data-name="Fill 25" d="M3.511 28.633H6.67v6.694H5v-.9a2.025 2.025 0 01-2.018 1C-.053 35.432 0 32.867 0 28.967c0-3.83.141-6.254 3.458-6.254 2.773 0 3.124 1.809 3.124 3.724v.738h-2.6v-.527c0-.861-.035-1.721-.456-1.721-.527 0-.6.492-.6 4.023 0 3.619.106 4.181.614 4.181.421 0 .614-.387.614-2h-.643z"/><path data-name="Fill 26" d="M10.126 35.328H7.318v-12.51h3.458a3.348 3.348 0 012.563.8 3.991 3.991 0 01.772 2.824c0 1.552-.288 2.44-1.808 2.688 1.541.337 1.843 1.305 1.843 2.864v3.337h-3v-3.395c0-1.267-.209-1.634-.93-1.634h-.09v5.024zm0-10.349v3.127h.392c.577 0 .772-.39.772-1.545 0-1.212-.18-1.581-.772-1.581z"/><path data-name="Fill 27" d="M18.062 35.432c-1.529 0-2.354-.378-2.848-1.3-.477-.898-.663-2.305-.663-5.025 0-2.735.186-4.154.663-5.061.497-.947 1.322-1.333 2.848-1.333 1.509 0 2.366.4 2.865 1.333.483.9.68 2.37.68 5.061 0 2.676-.2 4.131-.68 5.021-.503.926-1.333 1.304-2.865 1.304zm0-10.418a.46.46 0 00-.348.121c-.288.289-.287 1.167-.285 3.289v1.335c0 2.1 0 2.968.279 3.251a.463.463 0 00.354.121.48.48 0 00.367-.125c.286-.287.285-1.155.283-3.253V28.43c0-2.12 0-3-.289-3.291a.477.477 0 00-.361-.126z"/><path data-name="Fill 28" d="M24.93 22.818v9.311c0 .843.21 1.037.632 1.037s.6-.193.6-1.037v-9.311h2.805v8.714c0 2.81-1.071 3.9-3.406 3.9s-3.44-1.09-3.44-3.9v-8.714z"/><path data-name="Fill 29" d="M32.322 35.327h-2.808V22.818h3.475c2.338 0 3.335 1.177 3.335 3.936a4.563 4.563 0 01-.79 3.045 3.233 3.233 0 01-2.633.925h-.579v4.6zm0-10.348v3.639h.4c.542 0 .773-.536.773-1.793 0-1.327-.217-1.844-.773-1.844z"/></g></g></symbol><symbol overflow="visible" id="sprite-pure-cinema" viewBox="0 0 102.8 55.5"><title>pure-cinema</title><style>.st1{fill:#13242f}</style><g id="Grupo_142_1_" transform="translate(-181 -4792)"><g id="Grupo_24_1_" transform="translate(40.061)"><path id="Caminho_24_1_" d="M227.7 4792l-46.7 46.7 8.8 8.8 46.7-46.7-8.8-8.8z" fill="#3f82ff"/></g><g id="Grupo_29_1_" transform="translate(47.008 8.667)"><path id="Caminho_29_1_" class="st1" d="M181 4805.5V4792h11.8v3.1h-7.5v2.4h3.8v3.1h-3.8v1.7h7.5v3.1l-11.8.1z"/></g><g id="Grupo_30_1_" transform="translate(55.628 26.514)"><path id="Caminho_30_1_" class="st1" d="M181 4805.5V4792h11.8v3.1h-7.5v2.4h3.8v3.1h-3.8v1.7h7.5v3.1l-11.8.1z"/></g><path id="Caminho_31_1_" class="st1" d="M216.4 4832H212v-13.5h4.3v13.5z"/><g id="Grupo_31_1_" transform="translate(38.865 26.521)"><path id="Caminho_32_1_" class="st1" d="M194.4 4805.5h-3.8l-5.7-6.5v6.5h-4V4792h3.8l5.7 6.7v-6.7h4v13.5z"/></g><g id="Grupo_34_1_" transform="translate(87.872 26.521)"><path id="Caminho_35_1_" class="st1" d="M185.9 4792l-4.9 13.5h4.4l.6-1.9h4.7l.6 1.9h4.6L191 4792h-5.1zm2.4 3.8l1.5 4.9h-3l1.5-4.9z"/></g><g id="Grupo_25_1_" transform="translate(0 8.67)"><path id="Caminho_25_1_" class="st1" d="M192.6 4794.7c-.2-.5-.5-1-.9-1.4-.4-.4-.9-.7-1.4-.9-.6-.2-1.2-.3-1.8-.3H181v13.5h4.3v-4.3h3.2c.6 0 1.2-.1 1.8-.3.5-.2 1-.5 1.4-.9.4-.4.7-.9.9-1.4.2-.6.3-1.2.3-1.8v-.3c0-.8-.1-1.4-.3-1.9m-3.3 2.1c-.1.1-.1.3-.3.4-.1.1-.2.2-.4.3-.1.1-.3.1-.5.1h-2.9v-2.4h2.8c.2 0 .3 0 .5.1.1.1.3.1.4.3.1.1.2.2.3.4.1.1.1.3.1.4.1.1.1.3 0 .4"/></g><g id="Grupo_26_1_" transform="translate(14.577 8.673)"><path id="Caminho_26_1_" class="st1" d="M194.4 4800.1c0 .8-.1 1.7-.5 2.5-.3.7-.7 1.3-1.3 1.8-.6.5-1.3.9-2.1 1.1-.9.3-1.9.4-2.8.4-1 0-1.9-.1-2.8-.4-.8-.2-1.5-.6-2.1-1.1-.6-.5-1-1.1-1.3-1.8-.3-.8-.5-1.6-.5-2.5v-8.1h4.3v8c0 .3 0 .7.1 1 .1.3.2.6.4.8.2.2.5.4.7.5.3.1.7.2 1 .2.4 0 .7-.1 1-.2.3-.1.5-.3.8-.5.2-.2.4-.5.5-.8.1-.3.2-.7.1-1v-8h4.3l.2 8.1z"/></g><g id="Grupo_27_1_" transform="translate(31.335 8.673)"><path id="Caminho_27_1_" class="st1" d="M193.7 4797.3c-.1.4-.3.7-.5 1.1-.2.3-.5.6-.8.9-.3.3-.7.5-1.1.6l3 5.6h-4.9l-2.3-4.8h-1.7v4.8H181V4792h8.3c.7 0 1.3.1 2 .3.5.2 1 .5 1.4.9.4.4.7.8.9 1.3.2.5.3 1 .3 1.6-.1.4-.1.8-.2 1.2m-4.4-1.4c-.1-.1-.2-.3-.3-.4-.1-.1-.2-.2-.4-.3-.1-.1-.3-.1-.5-.1h-2.8v2.4h2.8c.2 0 .3 0 .5-.1.1-.1.3-.2.4-.3.1-.1.2-.2.3-.4.1-.2.1-.3.1-.5 0 0 0-.2-.1-.3"/></g><g id="Grupo_33_1_"><g id="Grupo_32_1_" transform="translate(69.924 26.521)"><path id="Caminho_33_1_" class="st1" d="M197.2 4805.5h-4.3v-6.4c0-.5.1-1 .1-1.4 0-.5.1-.9.2-1.4h-.1l-2.5 9.1h-3.4l-2.5-9.1h-.1c.1.4.1.9.2 1.4 0 .4.1.9.1 1.4s.1 1 .1 1.5v4.9h-4V4792h6.1l2 7.8h.1l2-7.8h5.9l.1 13.5z"/></g></g><g id="Grupo_36_1_"><g id="Grupo_35_1_" transform="translate(14.577 26.28)"><path id="Caminho_36_1_" class="st1" d="M190.5 4800.3h4c0 .8-.1 1.7-.4 2.5-.3.7-.7 1.3-1.3 1.8-.6.5-1.3.9-2 1.1-.9.3-1.8.4-2.8.4-1.9.1-3.8-.5-5.2-1.8-1.3-1.4-1.9-3.3-1.8-5.2-.1-1.9.5-3.8 1.8-5.2 1.4-1.3 3.3-1.9 5.2-1.8.9 0 1.8.1 2.7.4.8.2 1.5.6 2.1 1.1.6.5 1 1.1 1.3 1.8.3.8.5 1.6.5 2.5h-4c.1-1.2-.7-2.3-1.9-2.5-.1 0-.2 0-.4-.1h-.2c-.4 0-.8.1-1.2.2-.3.1-.6.4-.8.6-.2.3-.4.6-.4 1-.1.4-.1.8-.1 1.3v1.3c0 .4 0 .8.1 1.3.1.4.2.7.5 1 .2.3.5.5.8.6.4.2.7.2 1.1.2.7.1 1.4-.2 1.9-.7.3-.5.5-1.2.5-1.8"/></g></g></g></symbol><symbol id="sprite-twitter" viewBox="0 0 56.693 56.693"><title>twitter</title><path d="M52.837 15.065a20.11 20.11 0 01-5.805 1.591 10.125 10.125 0 004.444-5.592 20.232 20.232 0 01-6.418 2.454 10.093 10.093 0 00-7.377-3.192c-5.581 0-10.106 4.525-10.106 10.107 0 .791.089 1.562.262 2.303-8.4-.422-15.848-4.445-20.833-10.56a10.055 10.055 0 00-1.368 5.082c0 3.506 1.784 6.6 4.496 8.412a10.078 10.078 0 01-4.578-1.265l-.001.128c0 4.896 3.484 8.98 8.108 9.91a10.162 10.162 0 01-4.565.172c1.287 4.015 5.019 6.938 9.441 7.019a20.276 20.276 0 01-12.552 4.327c-.815 0-1.62-.048-2.411-.142a28.6 28.6 0 0015.493 4.541c18.591 0 28.756-15.4 28.756-28.756 0-.438-.009-.875-.028-1.309a20.47 20.47 0 005.042-5.23z" fill="currentColor"/></symbol><symbol id="sprite-vimeo" viewBox="0 0 512 512"><title>vimeo</title><path d="M420.1 197.9c-1.5 33.6-25 79.5-70.3 137.8-46.9 60.9-86.5 91.4-118.9 91.4-20.1 0-37.1-18.5-51-55.6-9.3-34-18.5-68-27.8-102-10.3-37.1-21.4-55.7-33.2-55.7-2.6 0-11.6 5.4-27 16.2l-16.2-20.9c17-14.9 33.8-29.9 50.3-44.9 22.7-19.6 39.7-29.9 51.1-31 26.8-2.6 43.3 15.8 49.5 55 6.7 42.4 11.3 68.7 13.9 79 7.7 35.1 16.2 52.7 25.5 52.7 7.2 0 18-11.4 32.5-34.2 14.4-22.8 22.2-40.1 23.2-52.1 2.1-19.7-5.7-29.5-23.2-29.5-8.3 0-16.8 1.9-25.5 5.7 16.9-55.5 49.3-82.4 97.1-80.9 35.4 1.1 52.1 24.1 50 69z"/></symbol></svg>